<?xml version="1.0" encoding="UTF-8" standalone="no"?>
<svg
   xmlns:dc="http://purl.org/dc/elements/1.1/"
   xmlns:cc="http://creativecommons.org/ns#"
   xmlns:rdf="http://www.w3.org/1999/02/22-rdf-syntax-ns#"
   xmlns:svg="http://www.w3.org/2000/svg"
   xmlns="http://www.w3.org/2000/svg"
   xmlns:sodipodi="http://sodipodi.sourceforge.net/DTD/sodipodi-0.dtd"
   xmlns:inkscape="http://www.inkscape.org/namespaces/inkscape"
   viewBox="0 0 48 48"
   width="240px"
   height="240px"
   version="1.1"
   id="svg9"
   sodipodi:docname="icons8-twitter.svg"
   inkscape:version="0.92.5 (2060ec1f9f, 2020-04-08)">
  <metadata
     id="metadata15">
    <rdf:RDF>
      <cc:Work
         rdf:about="">
        <dc:format>image/svg+xml</dc:format>
        <dc:type
           rdf:resource="http://purl.org/dc/dcmitype/StillImage" />
        <dc:title></dc:title>
      </cc:Work>
    </rdf:RDF>
  </metadata>
  <defs
     id="defs13" />
  <sodipodi:namedview
     pagecolor="#ffffff"
     bordercolor="#666666"
     borderopacity="1"
     objecttolerance="10"
     gridtolerance="10"
     guidetolerance="10"
     inkscape:pageopacity="0"
     inkscape:pageshadow="2"
     inkscape:window-width="1366"
     inkscape:window-height="708"
     id="namedview11"
     showgrid="false"
     inkscape:zoom="0.98333333"
     inkscape:cx="120"
     inkscape:cy="120"
     inkscape:window-x="0"
     inkscape:window-y="0"
     inkscape:window-maximized="1"
     inkscape:current-layer="svg9" />
  <linearGradient
     id="_osn9zIN2f6RhTsY8WhY4a"
     x1="10.341"
     x2="40.798"
     y1="8.312"
     y2="38.769"
     gradientUnits="userSpaceOnUse">
    <stop
       offset="0"
       stop-color="#2aa4f4"
       id="stop2" />
    <stop
       offset="1"
       stop-color="#007ad9"
       id="stop4" />
  </linearGradient>
  <path
     d="M46.105,11.02c-1.551,0.687-3.219,1.145-4.979,1.362c1.789-1.062,3.166-2.756,3.812-4.758 c-1.674,0.981-3.529,1.702-5.502,2.082C37.86,8.036,35.612,7,33.122,7c-4.783,0-8.661,3.843-8.661,8.582 c0,0.671,0.079,1.324,0.226,1.958c-7.196-0.361-13.579-3.782-17.849-8.974c-0.75,1.269-1.172,2.754-1.172,4.322 c0,2.979,1.525,5.602,3.851,7.147c-1.42-0.043-2.756-0.438-3.926-1.072c0,0.026,0,0.064,0,0.101c0,4.163,2.986,7.63,6.944,8.419 c-0.723,0.198-1.488,0.308-2.276,0.308c-0.559,0-1.104-0.063-1.632-0.158c1.102,3.402,4.299,5.889,8.087,5.963 c-2.964,2.298-6.697,3.674-10.756,3.674c-0.701,0-1.387-0.04-2.065-0.122C7.73,39.577,12.283,41,17.171,41 c15.927,0,24.641-13.079,24.641-24.426c0-0.372-0.012-0.742-0.029-1.108C43.483,14.265,44.948,12.751,46.105,11.02"
     id="path7"
     fill="url(#_osn9zIN2f6RhTsY8WhY4a)" />
  <g
     id="g869">
    <rect
       ry="0.91525424"
       y="20.184069"
       x="23.263271"
       height="13.01695"
       width="1.8305085"
       id="rect825"
       style="fill:#ffffff;fill-opacity:1;stroke-width:0.2" />
    <rect
       transform="rotate(89.93874)"
       ry="0.91525424"
       y="-30.68358"
       x="25.551289"
       height="13.01695"
       width="1.8305085"
       id="rect825-6"
       style="fill:#ffffff;fill-opacity:1;stroke-width:0.2" />
  </g>
</svg>
